<svg xmlns="http://www.w3.org/2000/svg" version="1.1" xmlns:xlink="http://www.w3.org/1999/xlink" xmlns:svgjs="http://svgjs.dev/svgjs" width="1500" height="1500" viewBox="0 0 1500 1500"><rect width="1500" height="1500" fill="#000000"></rect><g transform="matrix(0.6666666666666666,0,0,0.6666666666666666,249.39393939393938,571.5647790753904)"><svg viewBox="0 0 396 141" data-background-color="#ffffff" preserveAspectRatio="xMidYMid meet" height="534" width="1500" xmlns="http://www.w3.org/2000/svg" xmlns:xlink="http://www.w3.org/1999/xlink"><g id="tight-bounds" transform="matrix(1,0,0,1,0.2400000000000091,0.17237682688187306)"><svg viewBox="0 0 395.52 140.65524634623623" height="140.65524634623623" width="395.52"><g><svg viewBox="0 0 687.3365481812116 244.43135999999998" height="140.65524634623623" width="395.52"><g transform="matrix(1,0,0,1,0,21.855651489664993)"><svg viewBox="0 0 395.52 200.72005702067" height="200.72005702067" width="395.52"><g id="textblocktransform"><svg viewBox="0 0 395.52 200.72005702067" height="200.72005702067" width="395.52" id="textblock"><g><svg viewBox="0 0 395.52 200.72005702067" height="200.72005702067" width="395.52"><g transform="matrix(1,0,0,1,0,0)"><svg width="395.52" viewBox="1.15 -35 70.14999999999999 35.6" height="200.72005702067" data-palette-color="#1c4b82"><path d="M20.55-35Q20.2-32.4 18.15-28.53 16.1-24.65 13.28-20.78 10.45-16.9 8-14.4L8-14.4 17.9-14.4 17.9-21.55Q19.45-23.75 21.05-26.75 22.65-29.75 23.15-31.7L23.15-31.7 27.4-31.7 27.4-14.4 32.2-14.4 32.2-7.05 27.4-7.05 27.4 0 17.9 0 17.9-7.05 1.15-7.05 1.15-14.5Q3.85-18.4 6.5-23.95 9.15-29.5 10.75-35L10.75-35 20.55-35ZM71.3-13.85Q71.3-6.8 66.85-3.1 62.4 0.6 54.2 0.6L54.2 0.6Q46 0.6 41.52-3.1 37.05-6.8 37.05-13.85L37.05-13.85 37.05-34.4 48.1-34.4 48.1-14Q48.1-11.1 49.65-9.38 51.2-7.65 54.15-7.65L54.15-7.65Q57.1-7.65 58.67-9.4 60.25-11.15 60.25-14L60.25-14 60.25-34.4 71.3-34.4 71.3-13.85Z" opacity="1" transform="matrix(1,0,0,1,0,0)" fill="#ffffff" class="wordmark-text-0" data-fill-palette-color="primary" id="text-0"></path></svg></g></svg></g></svg></g></svg></g><g transform="matrix(1,0,0,1,442.90518818121166,0)"><svg viewBox="0 0 244.43135999999998 244.43135999999998" height="244.43135999999998" width="244.43135999999998"><g data-palette-color="#1c4b82"><rect width="66.8112384" height="244.43135999999998" fill="#ffffff" stroke="transparent" data-fill-palette-color="accent" x="0" fill-opacity="1"></rect><rect width="66.8112384" height="244.43135999999998" fill="#ffffff" stroke="transparent" data-fill-palette-color="accent" x="81.47711999999999" fill-opacity="0.75"></rect><rect width="66.8112384" height="244.43135999999998" fill="#ffffff" stroke="transparent" data-fill-palette-color="accent" x="162.95423999999997" fill-opacity="0.5"></rect></g></svg></g></svg></g><defs></defs></svg><rect width="395.52" height="140.65524634623623" fill="none" stroke="none" visibility="hidden"></rect></g></svg></g></svg>